<svg width="20" height="14" viewBox="0 0 20 14" fill="none" xmlns="http://www.w3.org/2000/svg">
<path d="M0.358887 0.81913C0.389813 0.819286 0.389813 0.819286 0.421363 0.819444C0.487002 0.81994 0.552589 0.82133 0.618214 0.822706C0.662462 0.823069 0.706711 0.823378 0.75096 0.823631C1.07261 0.826855 1.07261 0.826855 1.18447 0.864139C1.20827 1.11055 1.22049 1.35386 1.21941 1.60137C1.21938 1.65234 1.21938 1.65234 1.21935 1.70434C1.21926 1.81709 1.21894 1.92984 1.21862 2.04259C1.2185 2.12388 1.21841 2.20516 1.21832 2.28645C1.21813 2.46096 1.21782 2.63546 1.21744 2.80997C1.2169 3.06265 1.2166 3.31532 1.21637 3.568C1.216 3.97854 1.21553 4.38909 1.21495 4.79963C1.21491 4.82416 1.21488 4.84868 1.21484 4.87395C1.21435 5.22212 1.21376 5.57029 1.21314 5.91847C1.2131 5.943 1.21305 5.96753 1.21301 5.99281C1.21296 6.01731 1.21292 6.04182 1.21287 6.06706C1.21214 6.4762 1.21166 6.88534 1.21138 7.29448C1.21119 7.54642 1.21081 7.79835 1.21015 8.05028C1.20966 8.2434 1.20951 8.43652 1.20947 8.62964C1.2094 8.70865 1.20923 8.78766 1.20893 8.86667C1.20855 8.97477 1.20855 9.08287 1.20866 9.19097C1.20845 9.222 1.20824 9.25304 1.20803 9.28501C1.20929 9.63273 1.24582 9.8958 1.47647 10.1649C1.82836 10.4688 2.3265 10.4399 2.76781 10.4673C5.30145 10.6275 7.84406 11.3125 9.83142 12.9676C9.89359 13.0151 9.95335 13.0472 10.0235 13.081C10.0387 13.0673 10.0539 13.0536 10.0696 13.0395C10.6943 12.4837 11.4251 12.0634 12.1702 11.692C12.1925 11.6808 12.2148 11.6696 12.2377 11.6581C13.3043 11.127 14.5013 10.8054 15.6742 10.6187C15.702 10.6143 15.7297 10.6098 15.7582 10.6053C16.3228 10.5171 16.8907 10.4808 17.4607 10.4463C17.5001 10.4438 17.5396 10.4413 17.5802 10.4387C17.6555 10.4339 17.7309 10.4294 17.8063 10.4253C18.1353 10.4041 18.4018 10.3578 18.6443 10.123C18.8972 9.81952 18.8676 9.39994 18.8658 9.02664C18.8657 8.99201 18.8657 8.95738 18.8657 8.92171C18.8655 8.8066 18.8651 8.69149 18.8647 8.57639C18.8645 8.4935 18.8644 8.41061 18.8642 8.32773C18.8639 8.14972 18.8635 7.97172 18.8631 7.79372C18.8623 7.5124 18.8619 7.23108 18.8615 6.94976C18.8614 6.85338 18.8613 6.75699 18.8612 6.66061C18.8611 6.62449 18.8611 6.62449 18.8611 6.58765C18.8607 6.31415 18.8603 6.04065 18.8598 5.76715C18.8597 5.74217 18.8597 5.71719 18.8597 5.69146C18.859 5.28584 18.858 4.88023 18.857 4.47462C18.856 4.05781 18.8553 3.641 18.855 3.2242C18.8548 2.96725 18.8542 2.7103 18.8533 2.45335C18.8527 2.25677 18.8525 2.06018 18.8525 1.8636C18.8524 1.78286 18.8522 1.70213 18.8517 1.6214C18.8512 1.51148 18.8512 1.40159 18.8514 1.29168C18.8511 1.25949 18.8508 1.2273 18.8505 1.19413C18.8508 1.15003 18.8508 1.15003 18.851 1.10505C18.851 1.07968 18.8509 1.05431 18.8509 1.02817C18.8658 0.940231 18.8961 0.896711 18.9573 0.832571C19.0506 0.817234 19.0506 0.817234 19.1635 0.81802C19.2041 0.818142 19.2446 0.818264 19.2864 0.81839C19.3075 0.818782 19.3286 0.819173 19.3504 0.819577C19.4148 0.820729 19.4792 0.820872 19.5437 0.820856C19.8595 0.823707 19.8595 0.823707 19.9675 0.895707C19.9795 0.961279 19.9795 0.961279 19.9796 1.04409C19.9799 1.07558 19.9802 1.10707 19.9805 1.13951C19.9804 1.17437 19.9802 1.20922 19.9801 1.24513C19.9803 1.28196 19.9805 1.31879 19.9807 1.35673C19.9812 1.45928 19.9813 1.56182 19.9812 1.66437C19.9811 1.77486 19.9817 1.88534 19.9821 1.99582C19.9828 2.18742 19.9832 2.37902 19.9834 2.57062C19.9836 2.84799 19.9843 3.12535 19.9851 3.40271C19.9865 3.85314 19.9874 4.30357 19.9881 4.754C19.9888 5.19085 19.9897 5.62769 19.9908 6.06454C19.9909 6.10484 19.9909 6.10484 19.991 6.14596C19.9913 6.28078 19.9917 6.41561 19.992 6.55044C19.9943 7.3967 19.9962 8.24297 19.9977 9.08924C19.9977 9.11063 19.9977 9.13203 19.9978 9.15408C19.998 9.29414 19.9983 9.4342 19.9985 9.57426C19.9986 9.6257 19.9986 9.6257 19.9987 9.67817C19.9988 9.74123 19.9989 9.80428 19.9989 9.86734C19.999 9.92675 19.9992 9.98618 19.9994 10.0456C19.9995 10.0736 19.9996 10.1017 19.9997 10.1305C19.9998 10.1551 19.9999 10.1797 20 10.205C19.9946 10.5902 19.8819 10.9335 19.6202 11.2185C19.3154 11.5003 18.964 11.6304 18.5512 11.6469C18.5272 11.648 18.5031 11.6492 18.4784 11.6504C18.194 11.6634 17.9094 11.6717 17.6248 11.6808C15.8348 11.7388 14.0347 11.9305 12.3596 12.6075C12.3133 12.6259 12.3133 12.6259 12.2661 12.6448C11.5713 12.9254 10.917 13.2913 10.3318 13.7618C10.1219 13.9284 10.1219 13.9284 9.97421 13.9491C9.8438 13.8922 9.75089 13.8163 9.64275 13.7247C9.39761 13.5252 9.12627 13.3447 8.83789 13.2145C8.76918 13.1799 8.70679 13.1421 8.64207 13.1007C6.80198 11.9375 4.38464 11.7587 2.2732 11.6751C2.15231 11.6703 2.03142 11.6654 1.91053 11.6604C1.87977 11.6592 1.849 11.658 1.8173 11.6567C1.72695 11.653 1.63661 11.6491 1.54627 11.6451C1.50575 11.6435 1.50575 11.6435 1.46442 11.6419C1.03426 11.6224 0.676241 11.4924 0.363696 11.1869C0.0551901 10.8048 0.0117231 10.3925 0.0118007 9.91875C0.0116846 9.88046 0.0115685 9.84218 0.011449 9.80273C0.0111623 9.69701 0.0110157 9.59129 0.0109316 9.48556C0.0108078 9.37134 0.0105055 9.25712 0.0102304 9.1429C0.00960848 8.86751 0.00928909 8.59213 0.00900781 8.31675C0.00886925 8.18701 0.00869989 8.05727 0.00853464 7.92753C0.00799806 7.4963 0.00754039 7.06506 0.00731141 6.63382C0.00725112 6.52209 0.0071905 6.41036 0.00712876 6.29863C0.00711349 6.27086 0.00709822 6.2431 0.00708249 6.21449C0.00682001 5.76385 0.00601922 5.31322 0.00499538 4.86259C0.00395256 4.39984 0.00338291 3.93709 0.00328191 3.47434C0.00321349 3.21455 0.00293626 2.95476 0.00213091 2.69498C0.00144728 2.47395 0.00119075 2.25292 0.00149851 2.0319C0.00164241 1.9191 0.00157965 1.8063 0.000969374 1.69351C0.000314183 1.57136 0.00063188 1.44922 0.00104933 1.32707C0.000703056 1.29125 0.000356772 1.25543 0 1.21853C0.000270883 1.18589 0.000541771 1.15324 0.000820862 1.11961C0.000790026 1.09141 0.000759184 1.06321 0.000727414 1.03415C0.041863 0.837079 0.180948 0.816997 0.358887 0.81913Z" fill="#8B4BF2"/>
<path d="M17.5781 0.00423794C17.6542 0.0039249 17.7303 0.00293771 17.8064 0.00195665C17.8554 0.001751 17.9043 0.00158506 17.9533 0.00146339C17.9758 0.00107363 17.9982 0.000683864 18.0214 0.000282288C18.1599 0.000903976 18.2473 0.0213634 18.3574 0.106526C18.3967 0.185098 18.3931 0.237673 18.3933 0.325615C18.3936 0.375384 18.3936 0.375384 18.3938 0.426158C18.3938 0.462896 18.3938 0.499635 18.3938 0.537487C18.394 0.576293 18.3941 0.6151 18.3943 0.655082C18.3946 0.76315 18.3948 0.871217 18.395 0.979285C18.3952 1.09571 18.3955 1.21213 18.3959 1.32855C18.3966 1.60991 18.3971 1.89128 18.3975 2.17264C18.3976 2.2521 18.3977 2.33155 18.3979 2.41101C18.3987 2.90428 18.3994 3.39756 18.3998 3.89083C18.3998 4.00513 18.3999 4.11943 18.4 4.23373C18.4001 4.26214 18.4001 4.29055 18.4001 4.31982C18.4005 4.77998 18.4016 5.24013 18.4029 5.70028C18.4042 6.17259 18.405 6.64489 18.4051 7.1172C18.4052 7.38243 18.4056 7.64765 18.4066 7.91288C18.4075 8.13879 18.4079 8.36469 18.4075 8.59059C18.4074 8.70584 18.4074 8.82107 18.4082 8.93632C18.4091 9.06134 18.4087 9.18634 18.4082 9.31136C18.4086 9.34767 18.4091 9.38399 18.4095 9.42141C18.4074 9.63854 18.3768 9.78955 18.2311 9.95578C18.0497 10.0964 17.8352 10.0899 17.6148 10.1025C17.5544 10.1062 17.4939 10.1099 17.4334 10.1137C17.3862 10.1165 17.3862 10.1165 17.338 10.1195C16.5503 10.1663 16.5503 10.1663 15.7688 10.2715C15.7488 10.275 15.7287 10.2785 15.708 10.2821C14.3087 10.5274 12.9564 10.9296 11.6965 11.5973C11.6586 11.6174 11.6586 11.6174 11.62 11.6379C11.2532 11.8335 10.9047 12.0394 10.5675 12.2828C10.5472 12.2974 10.527 12.312 10.5061 12.327C10.4665 12.3556 10.4271 12.3844 10.3878 12.4134C10.2513 12.5128 10.2513 12.5128 10.1813 12.5128C10.2312 12.3948 10.3054 12.314 10.3924 12.2208C10.486 12.1199 10.5783 12.0186 10.6666 11.913C10.9399 11.6003 11.2704 11.3401 11.6018 11.0922C11.6239 11.0755 11.6461 11.0588 11.6688 11.0416C12.7709 10.2149 14.108 9.66373 15.4532 9.38755C15.4848 9.38089 15.5165 9.37423 15.5492 9.36736C16.1674 9.23903 16.8089 9.13501 17.4419 9.13501C17.4419 6.33271 17.4419 3.5304 17.4419 0.643184C16.1418 0.738738 16.1418 0.738738 14.8534 0.927297C14.8146 0.934444 14.7758 0.941591 14.7358 0.948954C13.3722 1.20349 11.9374 1.63936 10.753 2.37179C10.6864 2.411 10.6864 2.411 10.5917 2.44257C10.6329 2.31891 10.7106 2.27014 10.8107 2.19397C10.8304 2.17882 10.8501 2.16368 10.8704 2.14807C10.9131 2.11547 10.956 2.083 10.9989 2.05066C11.0424 2.0178 11.0858 1.98472 11.129 1.95143C12.2706 1.07341 14.1793 0.132632 15.6741 0.169662C15.6845 0.148827 15.695 0.127992 15.7057 0.106526C15.7795 0.0940637 15.7795 0.0940637 15.8775 0.0876592C15.9135 0.0851565 15.9496 0.0826539 15.9868 0.0800754C16.0249 0.0777356 16.063 0.0753957 16.1023 0.0729849C16.1385 0.070523 16.1748 0.068061 16.2122 0.0655245C16.2879 0.060446 16.3636 0.0555675 16.4393 0.0508657C16.519 0.0458455 16.5988 0.0404867 16.6785 0.0348041C16.9785 0.0140613 17.2774 0.00498633 17.5781 0.00423794Z" fill="#8246EF"/>
<path d="M2.05679 0.000331232C2.09188 0.000266854 2.09188 0.000266854 2.12767 0.000201175C2.20394 0.00024781 2.28018 0.00104507 2.35644 0.0019343C2.40947 0.00227164 2.46251 0.00260818 2.51554 0.00294393C2.95749 0.00693924 3.39647 0.0294683 3.8362 0.0749356C3.86901 0.0783182 3.90182 0.0817008 3.93562 0.085186C4.37045 0.131645 4.79898 0.197764 5.22519 0.295912C5.25261 0.302205 5.28003 0.308497 5.30828 0.31498C6.00345 0.47804 6.70364 0.695413 7.34026 1.02198C7.38034 1.04159 7.42046 1.06111 7.46061 1.08055C8.18599 1.4338 8.8809 1.84228 9.48689 2.37941C9.39219 2.41098 9.39219 2.41098 9.32817 2.37949C9.30364 2.36331 9.27911 2.34713 9.25383 2.33045C9.06615 2.21272 8.8711 2.11889 8.67007 2.02624C8.65109 2.01747 8.63211 2.0087 8.61256 1.99967C6.89115 1.20665 5.06259 0.744146 3.16704 0.687184C3.11329 0.685414 3.11329 0.685414 3.05846 0.683608C3.01075 0.682174 3.01075 0.682174 2.96207 0.68071C2.83215 0.673274 2.70281 0.657533 2.57347 0.643162C2.57347 3.45588 2.57347 6.2686 2.57347 9.16655C2.7089 9.16655 2.84433 9.16655 2.98386 9.16655C3.12334 9.17689 3.26128 9.18874 3.40016 9.20404C3.43833 9.20824 3.4765 9.21244 3.51582 9.21677C5.18791 9.4114 6.84837 9.98322 8.22417 10.9659C8.24208 10.9787 8.26 10.9914 8.27845 11.0045C8.53507 11.1882 8.77544 11.3904 9.01337 11.5973C9.04409 11.6237 9.07482 11.6501 9.10647 11.6773C9.3093 11.8558 9.47796 12.0482 9.64473 12.2602C9.70716 12.3345 9.77058 12.4079 9.83414 12.4812C9.8133 12.4916 9.79247 12.502 9.771 12.5128C9.74268 12.4914 9.71436 12.47 9.68518 12.4479C7.58435 10.8744 5.01893 10.2458 2.43699 10.1061C2.41544 10.1049 2.39389 10.1036 2.37169 10.1024C2.31362 10.099 2.25554 10.096 2.19745 10.0929C2.01565 10.0726 1.89844 10.0081 1.77243 9.87881C1.68653 9.74335 1.65013 9.63249 1.64979 9.47203C1.64945 9.42183 1.64945 9.42183 1.64911 9.37062C1.64919 9.33405 1.64926 9.29748 1.64934 9.2598C1.64918 9.2208 1.64901 9.1818 1.64884 9.14162C1.64845 9.03346 1.64834 8.92531 1.64836 8.81715C1.6483 8.70047 1.64789 8.5838 1.64753 8.46712C1.64681 8.21211 1.64656 7.9571 1.6464 7.70208C1.6463 7.54292 1.64609 7.38376 1.64586 7.22459C1.64524 6.78404 1.64473 6.3435 1.64463 5.90295C1.64463 5.87476 1.64462 5.84658 1.64462 5.81754C1.6446 5.76041 1.64459 5.70327 1.64458 5.64614C1.64458 5.61777 1.64457 5.58941 1.64456 5.56019C1.64456 5.53179 1.64455 5.5034 1.64455 5.47414C1.64444 5.01347 1.64358 4.55282 1.6424 4.09215C1.6412 3.61938 1.64059 3.14661 1.64058 2.67384C1.64056 2.40831 1.64029 2.14279 1.63938 1.87727C1.63861 1.65131 1.63837 1.42535 1.63885 1.19938C1.63908 1.08403 1.63905 0.968686 1.63833 0.853333C1.63757 0.728469 1.63802 0.603627 1.63859 0.478761C1.63818 0.44205 1.63776 0.405339 1.63733 0.367516C1.63768 0.334215 1.63804 0.300915 1.6384 0.266605C1.63837 0.237766 1.63835 0.208927 1.63832 0.179214C1.658 0.106504 1.658 0.106504 1.73117 0.0498797C1.84061 0.000657682 1.93909 -0.00120615 2.05679 0.000331232Z" fill="#A55EFC"/>
<path d="M9.99193 3.26333C10.0128 3.26333 10.0336 3.26333 10.0551 3.26333C10.0581 3.2868 10.0611 3.31027 10.0642 3.33445C10.1792 4.51581 10.1792 4.51581 10.8009 5.48407C11.3194 5.84951 12.1243 5.91769 12.7384 5.97819C12.7384 6.01986 12.7384 6.06153 12.7384 6.10446C12.7196 6.10384 12.7008 6.10322 12.6815 6.10259C12.4739 6.09877 12.2794 6.12059 12.0754 6.15773C12.044 6.16339 12.0125 6.16905 11.9801 6.17489C11.1856 6.3181 11.1856 6.3181 10.5917 6.83053C10.2551 7.36367 10.1997 8.03615 10.1041 8.6458C10.0783 8.80904 10.051 8.97203 10.0235 9.135C9.97252 9.04365 9.95007 8.96909 9.93903 8.86531C9.93578 8.83701 9.93253 8.80871 9.92919 8.77956C9.9258 8.74905 9.92242 8.71855 9.91893 8.68713C9.80344 7.5424 9.80344 7.5424 9.23134 6.5823C8.98118 6.40481 8.68569 6.31323 8.38985 6.24454C8.36193 6.23794 8.334 6.23134 8.30523 6.22454C7.98683 6.15226 7.66427 6.11057 7.34021 6.07289C7.34021 6.04164 7.34021 6.01039 7.34021 5.97819C7.36385 5.97519 7.38748 5.97219 7.41183 5.9691C8.51368 5.87026 8.51368 5.87026 9.41877 5.30453C9.80793 4.69417 9.89694 3.96847 9.99193 3.26333Z" fill="#9854FB"/>
<path d="M18.8941 0.927288C18.9046 0.927288 18.915 0.927288 18.9257 0.927288C18.9306 1.67754 18.9353 2.42779 18.9397 3.17804C18.9418 3.52642 18.9439 3.87481 18.9462 4.22319C18.9482 4.52697 18.95 4.83074 18.9518 5.13452C18.9527 5.29525 18.9536 5.45599 18.9548 5.61672C18.9558 5.76827 18.9567 5.91982 18.9575 6.07137C18.9578 6.12673 18.9582 6.1821 18.9586 6.23746C18.9609 6.54241 18.9558 6.84242 18.9257 7.14621C18.9153 7.14621 18.9049 7.14621 18.8941 7.14621C18.8527 6.53185 18.8579 5.91695 18.8583 5.30156C18.8584 5.1486 18.8583 4.99564 18.8583 4.84267C18.8582 4.58669 18.8583 4.3307 18.8585 4.07471C18.8586 3.77859 18.8586 3.48247 18.8584 3.18635C18.8583 2.93127 18.8582 2.67619 18.8583 2.42112C18.8584 2.26909 18.8584 2.11706 18.8583 1.96503C18.8582 1.82272 18.8582 1.68041 18.8584 1.53811C18.8585 1.48579 18.8585 1.43347 18.8584 1.38115C18.8583 1.31007 18.8584 1.239 18.8586 1.16792C18.8586 1.12807 18.8586 1.08822 18.8586 1.04717C18.8626 0.958856 18.8626 0.958856 18.8941 0.927288Z" fill="#7F46E2"/>
</svg>
